  0
SECTION
  2
HEADER
  9
$ACADVER
  1
AC1009
  9
$INSUNITS
  70
4
  9
$EXTMIN
  10
-0.880602
  20
-3.66412
  9
$EXTMAX
  10
6.502968
  20
3.66412
  0
ENDSEC
  0
SECTION
  2
TABLES
  0
TABLE
  2
LTYPE
  70
1
  0
LTYPE
  2
CONTINUOUS
  70
64
  3
Solid line
  72
65
  73
0
  40
0
  0
ENDTAB
  0
TABLE
  2
LAYER
  70
1
  0
LAYER
  2
Thick_Metal
  70
0
  62
31
  6
CONTINUOUS
  0
ENDTAB
  0
ENDSEC
  0
SECTION
  2
BLOCKS
  0
ENDSEC
  0
SECTION
  2
ENTITIES
  0
POLYLINE
  8
Thick_Metal
  70
1
  66
1
  0
VERTEX
  8
Thick_Metal
  10
-0.156252
  20
0.271901
  0
VERTEX
  8
Thick_Metal
  10
0.156252
  20
0.271901
  0
VERTEX
  8
Thick_Metal
  10
0.156252
  20
-0.271901
  0
VERTEX
  8
Thick_Metal
  10
-0.156252
  20
-0.271901
  0
SEQEND
  0
POLYLINE
  8
Thick_Metal
  70
1
  66
1
  0
VERTEX
  8
Thick_Metal
  10
0.156252
  20
0.8636
  0
VERTEX
  8
Thick_Metal
  10
0.160032
  20
1.000718
  0
VERTEX
  8
Thick_Metal
  10
0.171359
  20
1.137419
  0
VERTEX
  8
Thick_Metal
  10
0.1902
  20
1.273289
  0
VERTEX
  8
Thick_Metal
  10
0.216497
  20
1.407915
  0
VERTEX
  8
Thick_Metal
  10
0.25017
  20
1.540887
  0
VERTEX
  8
Thick_Metal
  10
0.291117
  20
1.671803
  0
VERTEX
  8
Thick_Metal
  10
0.339214
  20
1.800264
  0
VERTEX
  8
Thick_Metal
  10
0.394315
  20
1.925881
  0
VERTEX
  8
Thick_Metal
  10
0.456251
  20
2.048271
  0
VERTEX
  8
Thick_Metal
  10
0.524836
  20
2.167064
  0
VERTEX
  8
Thick_Metal
  10
0.599861
  20
2.281898
  0
VERTEX
  8
Thick_Metal
  10
0.681098
  20
2.392425
  0
VERTEX
  8
Thick_Metal
  10
0.7683
  20
2.498308
  0
VERTEX
  8
Thick_Metal
  10
0.861203
  20
2.599228
  0
VERTEX
  8
Thick_Metal
  10
0.959524
  20
2.694876
  0
VERTEX
  8
Thick_Metal
  10
1.062965
  20
2.784962
  0
VERTEX
  8
Thick_Metal
  10
1.171211
  20
2.869214
  0
VERTEX
  8
Thick_Metal
  10
1.283934
  20
2.947374
  0
VERTEX
  8
Thick_Metal
  10
1.400792
  20
3.019207
  0
VERTEX
  8
Thick_Metal
  10
1.521429
  20
3.084492
  0
VERTEX
  8
Thick_Metal
  10
1.64548
  20
3.143033
  0
VERTEX
  8
Thick_Metal
  10
1.772567
  20
3.194651
  0
VERTEX
  8
Thick_Metal
  10
1.902305
  20
3.23919
  0
VERTEX
  8
Thick_Metal
  10
2.034299
  20
3.276515
  0
VERTEX
  8
Thick_Metal
  10
2.168149
  20
3.306511
  0
VERTEX
  8
Thick_Metal
  10
2.303448
  20
3.329089
  0
VERTEX
  8
Thick_Metal
  10
2.439785
  20
3.344179
  0
VERTEX
  8
Thick_Metal
  10
2.576747
  20
3.351735
  0
VERTEX
  8
Thick_Metal
  10
2.713917
  20
3.351735
  0
VERTEX
  8
Thick_Metal
  10
2.850879
  20
3.344179
  0
VERTEX
  8
Thick_Metal
  10
2.987216
  20
3.329089
  0
VERTEX
  8
Thick_Metal
  10
3.122515
  20
3.306511
  0
VERTEX
  8
Thick_Metal
  10
3.256365
  20
3.276515
  0
VERTEX
  8
Thick_Metal
  10
3.388359
  20
3.23919
  0
VERTEX
  8
Thick_Metal
  10
3.518097
  20
3.194651
  0
VERTEX
  8
Thick_Metal
  10
3.645184
  20
3.143033
  0
VERTEX
  8
Thick_Metal
  10
3.769235
  20
3.084492
  0
VERTEX
  8
Thick_Metal
  10
3.889872
  20
3.019207
  0
VERTEX
  8
Thick_Metal
  10
4.00673
  20
2.947374
  0
VERTEX
  8
Thick_Metal
  10
4.119453
  20
2.869214
  0
VERTEX
  8
Thick_Metal
  10
4.227699
  20
2.784962
  0
VERTEX
  8
Thick_Metal
  10
4.33114
  20
2.694876
  0
VERTEX
  8
Thick_Metal
  10
4.429461
  20
2.599228
  0
VERTEX
  8
Thick_Metal
  10
4.522364
  20
2.498308
  0
VERTEX
  8
Thick_Metal
  10
4.609566
  20
2.392425
  0
VERTEX
  8
Thick_Metal
  10
4.690803
  20
2.281898
  0
VERTEX
  8
Thick_Metal
  10
4.765828
  20
2.167064
  0
VERTEX
  8
Thick_Metal
  10
4.834413
  20
2.048271
  0
VERTEX
  8
Thick_Metal
  10
4.896349
  20
1.925881
  0
VERTEX
  8
Thick_Metal
  10
4.95145
  20
1.800264
  0
VERTEX
  8
Thick_Metal
  10
4.999547
  20
1.671803
  0
VERTEX
  8
Thick_Metal
  10
5.040494
  20
1.540887
  0
VERTEX
  8
Thick_Metal
  10
5.074167
  20
1.407915
  0
VERTEX
  8
Thick_Metal
  10
5.100464
  20
1.273289
  0
VERTEX
  8
Thick_Metal
  10
5.119305
  20
1.137419
  0
VERTEX
  8
Thick_Metal
  10
5.130632
  20
1.000718
  0
VERTEX
  8
Thick_Metal
  10
5.134412
  20
0.8636
  0
VERTEX
  8
Thick_Metal
  10
5.446916
  20
0.8636
  0
VERTEX
  8
Thick_Metal
  10
5.442662
  20
1.017933
  0
VERTEX
  8
Thick_Metal
  10
5.429912
  20
1.171797
  0
VERTEX
  8
Thick_Metal
  10
5.408706
  20
1.324726
  0
VERTEX
  8
Thick_Metal
  10
5.379108
  20
1.476253
  0
VERTEX
  8
Thick_Metal
  10
5.341207
  20
1.625921
  0
VERTEX
  8
Thick_Metal
  10
5.295118
  20
1.773273
  0
VERTEX
  8
Thick_Metal
  10
5.240983
  20
1.917862
  0
VERTEX
  8
Thick_Metal
  10
5.178965
  20
2.05925
  0
VERTEX
  8
Thick_Metal
  10
5.109252
  20
2.197007
  0
VERTEX
  8
Thick_Metal
  10
5.032056
  20
2.330714
  0
VERTEX
  8
Thick_Metal
  10
4.947612
  20
2.459965
  0
VERTEX
  8
Thick_Metal
  10
4.856175
  20
2.584369
  0
VERTEX
  8
Thick_Metal
  10
4.758025
  20
2.703546
  0
VERTEX
  8
Thick_Metal
  10
4.653458
  20
2.817136
  0
VERTEX
  8
Thick_Metal
  10
4.542793
  20
2.924792
  0
VERTEX
  8
Thick_Metal
  10
4.426365
  20
3.026189
  0
VERTEX
  8
Thick_Metal
  10
4.304529
  20
3.121019
  0
VERTEX
  8
Thick_Metal
  10
4.177653
  20
3.208992
  0
VERTEX
  8
Thick_Metal
  10
4.046124
  20
3.289843
  0
VERTEX
  8
Thick_Metal
  10
3.910341
  20
3.363325
  0
VERTEX
  8
Thick_Metal
  10
3.770715
  20
3.429216
  0
VERTEX
  8
Thick_Metal
  10
3.627673
  20
3.487315
  0
VERTEX
  8
Thick_Metal
  10
3.481646
  20
3.537446
  0
VERTEX
  8
Thick_Metal
  10
3.33308
  20
3.579456
  0
VERTEX
  8
Thick_Metal
  10
3.182425
  20
3.613219
  0
VERTEX
  8
Thick_Metal
  10
3.03014
  20
3.638631
  0
VERTEX
  8
Thick_Metal
  10
2.876685
  20
3.655615
  0
VERTEX
  8
Thick_Metal
  10
2.722528
  20
3.66412
  0
VERTEX
  8
Thick_Metal
  10
2.568136
  20
3.66412
  0
VERTEX
  8
Thick_Metal
  10
2.413979
  20
3.655615
  0
VERTEX
  8
Thick_Metal
  10
2.260524
  20
3.638631
  0
VERTEX
  8
Thick_Metal
  10
2.108239
  20
3.613219
  0
VERTEX
  8
Thick_Metal
  10
1.957584
  20
3.579456
  0
VERTEX
  8
Thick_Metal
  10
1.809018
  20
3.537446
  0
VERTEX
  8
Thick_Metal
  10
1.662991
  20
3.487315
  0
VERTEX
  8
Thick_Metal
  10
1.519949
  20
3.429216
  0
VERTEX
  8
Thick_Metal
  10
1.380323
  20
3.363325
  0
VERTEX
  8
Thick_Metal
  10
1.24454
  20
3.289843
  0
VERTEX
  8
Thick_Metal
  10
1.113011
  20
3.208992
  0
VERTEX
  8
Thick_Metal
  10
0.986135
  20
3.121019
  0
VERTEX
  8
Thick_Metal
  10
0.864299
  20
3.026189
  0
VERTEX
  8
Thick_Metal
  10
0.747871
  20
2.924792
  0
VERTEX
  8
Thick_Metal
  10
0.637206
  20
2.817136
  0
VERTEX
  8
Thick_Metal
  10
0.532639
  20
2.703546
  0
VERTEX
  8
Thick_Metal
  10
0.434489
  20
2.584369
  0
VERTEX
  8
Thick_Metal
  10
0.343052
  20
2.459965
  0
VERTEX
  8
Thick_Metal
  10
0.258608
  20
2.330714
  0
VERTEX
  8
Thick_Metal
  10
0.181412
  20
2.197007
  0
VERTEX
  8
Thick_Metal
  10
0.111699
  20
2.05925
  0
VERTEX
  8
Thick_Metal
  10
0.049681
  20
1.917862
  0
VERTEX
  8
Thick_Metal
  10
-0.004454
  20
1.773273
  0
VERTEX
  8
Thick_Metal
  10
-0.050543
  20
1.625921
  0
VERTEX
  8
Thick_Metal
  10
-0.088444
  20
1.476253
  0
VERTEX
  8
Thick_Metal
  10
-0.118042
  20
1.324726
  0
VERTEX
  8
Thick_Metal
  10
-0.139248
  20
1.171797
  0
VERTEX
  8
Thick_Metal
  10
-0.151998
  20
1.017933
  0
VERTEX
  8
Thick_Metal
  10
-0.156252
  20
0.8636
  0
SEQEND
  0
POLYLINE
  8
Thick_Metal
  70
1
  66
1
  0
VERTEX
  8
Thick_Metal
  10
5.134412
  20
-0.8636
  0
VERTEX
  8
Thick_Metal
  10
5.130632
  20
-1.000718
  0
VERTEX
  8
Thick_Metal
  10
5.119305
  20
-1.137419
  0
VERTEX
  8
Thick_Metal
  10
5.100464
  20
-1.273289
  0
VERTEX
  8
Thick_Metal
  10
5.074167
  20
-1.407915
  0
VERTEX
  8
Thick_Metal
  10
5.040494
  20
-1.540887
  0
VERTEX
  8
Thick_Metal
  10
4.999547
  20
-1.671803
  0
VERTEX
  8
Thick_Metal
  10
4.95145
  20
-1.800264
  0
VERTEX
  8
Thick_Metal
  10
4.896349
  20
-1.925881
  0
VERTEX
  8
Thick_Metal
  10
4.834413
  20
-2.048271
  0
VERTEX
  8
Thick_Metal
  10
4.765828
  20
-2.167064
  0
VERTEX
  8
Thick_Metal
  10
4.690803
  20
-2.281898
  0
VERTEX
  8
Thick_Metal
  10
4.609566
  20
-2.392425
  0
VERTEX
  8
Thick_Metal
  10
4.522364
  20
-2.498308
  0
VERTEX
  8
Thick_Metal
  10
4.429461
  20
-2.599228
  0
VERTEX
  8
Thick_Metal
  10
4.33114
  20
-2.694876
  0
VERTEX
  8
Thick_Metal
  10
4.227699
  20
-2.784962
  0
VERTEX
  8
Thick_Metal
  10
4.119453
  20
-2.869214
  0
VERTEX
  8
Thick_Metal
  10
4.00673
  20
-2.947374
  0
VERTEX
  8
Thick_Metal
  10
3.889872
  20
-3.019207
  0
VERTEX
  8
Thick_Metal
  10
3.769235
  20
-3.084492
  0
VERTEX
  8
Thick_Metal
  10
3.645184
  20
-3.143033
  0
VERTEX
  8
Thick_Metal
  10
3.518097
  20
-3.194651
  0
VERTEX
  8
Thick_Metal
  10
3.388359
  20
-3.23919
  0
VERTEX
  8
Thick_Metal
  10
3.256365
  20
-3.276515
  0
VERTEX
  8
Thick_Metal
  10
3.122515
  20
-3.306511
  0
VERTEX
  8
Thick_Metal
  10
2.987216
  20
-3.329089
  0
VERTEX
  8
Thick_Metal
  10
2.850879
  20
-3.344179
  0
VERTEX
  8
Thick_Metal
  10
2.713917
  20
-3.351735
  0
VERTEX
  8
Thick_Metal
  10
2.576747
  20
-3.351735
  0
VERTEX
  8
Thick_Metal
  10
2.439785
  20
-3.344179
  0
VERTEX
  8
Thick_Metal
  10
2.303448
  20
-3.329089
  0
VERTEX
  8
Thick_Metal
  10
2.168149
  20
-3.306511
  0
VERTEX
  8
Thick_Metal
  10
2.034299
  20
-3.276515
  0
VERTEX
  8
Thick_Metal
  10
1.902305
  20
-3.23919
  0
VERTEX
  8
Thick_Metal
  10
1.772567
  20
-3.194651
  0
VERTEX
  8
Thick_Metal
  10
1.64548
  20
-3.143033
  0
VERTEX
  8
Thick_Metal
  10
1.521429
  20
-3.084492
  0
VERTEX
  8
Thick_Metal
  10
1.400792
  20
-3.019207
  0
VERTEX
  8
Thick_Metal
  10
1.283934
  20
-2.947374
  0
VERTEX
  8
Thick_Metal
  10
1.171211
  20
-2.869214
  0
VERTEX
  8
Thick_Metal
  10
1.062965
  20
-2.784962
  0
VERTEX
  8
Thick_Metal
  10
0.959524
  20
-2.694876
  0
VERTEX
  8
Thick_Metal
  10
0.861203
  20
-2.599228
  0
VERTEX
  8
Thick_Metal
  10
0.7683
  20
-2.498308
  0
VERTEX
  8
Thick_Metal
  10
0.681098
  20
-2.392425
  0
VERTEX
  8
Thick_Metal
  10
0.599861
  20
-2.281898
  0
VERTEX
  8
Thick_Metal
  10
0.524836
  20
-2.167064
  0
VERTEX
  8
Thick_Metal
  10
0.456251
  20
-2.048271
  0
VERTEX
  8
Thick_Metal
  10
0.394315
  20
-1.925881
  0
VERTEX
  8
Thick_Metal
  10
0.339214
  20
-1.800264
  0
VERTEX
  8
Thick_Metal
  10
0.291117
  20
-1.671803
  0
VERTEX
  8
Thick_Metal
  10
0.25017
  20
-1.540887
  0
VERTEX
  8
Thick_Metal
  10
0.216497
  20
-1.407915
  0
VERTEX
  8
Thick_Metal
  10
0.1902
  20
-1.273289
  0
VERTEX
  8
Thick_Metal
  10
0.171359
  20
-1.137419
  0
VERTEX
  8
Thick_Metal
  10
0.160032
  20
-1.000718
  0
VERTEX
  8
Thick_Metal
  10
0.156252
  20
-0.8636
  0
VERTEX
  8
Thick_Metal
  10
-0.156252
  20
-0.8636
  0
VERTEX
  8
Thick_Metal
  10
-0.151998
  20
-1.017933
  0
VERTEX
  8
Thick_Metal
  10
-0.139248
  20
-1.171797
  0
VERTEX
  8
Thick_Metal
  10
-0.118042
  20
-1.324726
  0
VERTEX
  8
Thick_Metal
  10
-0.088444
  20
-1.476253
  0
VERTEX
  8
Thick_Metal
  10
-0.050543
  20
-1.625921
  0
VERTEX
  8
Thick_Metal
  10
-0.004454
  20
-1.773273
  0
VERTEX
  8
Thick_Metal
  10
0.049681
  20
-1.917862
  0
VERTEX
  8
Thick_Metal
  10
0.111699
  20
-2.05925
  0
VERTEX
  8
Thick_Metal
  10
0.181412
  20
-2.197007
  0
VERTEX
  8
Thick_Metal
  10
0.258608
  20
-2.330714
  0
VERTEX
  8
Thick_Metal
  10
0.343052
  20
-2.459965
  0
VERTEX
  8
Thick_Metal
  10
0.434489
  20
-2.584369
  0
VERTEX
  8
Thick_Metal
  10
0.532639
  20
-2.703546
  0
VERTEX
  8
Thick_Metal
  10
0.637206
  20
-2.817136
  0
VERTEX
  8
Thick_Metal
  10
0.747871
  20
-2.924792
  0
VERTEX
  8
Thick_Metal
  10
0.864299
  20
-3.026189
  0
VERTEX
  8
Thick_Metal
  10
0.986135
  20
-3.121019
  0
VERTEX
  8
Thick_Metal
  10
1.113011
  20
-3.208992
  0
VERTEX
  8
Thick_Metal
  10
1.24454
  20
-3.289843
  0
VERTEX
  8
Thick_Metal
  10
1.380323
  20
-3.363325
  0
VERTEX
  8
Thick_Metal
  10
1.519949
  20
-3.429216
  0
VERTEX
  8
Thick_Metal
  10
1.662991
  20
-3.487315
  0
VERTEX
  8
Thick_Metal
  10
1.809018
  20
-3.537446
  0
VERTEX
  8
Thick_Metal
  10
1.957584
  20
-3.579456
  0
VERTEX
  8
Thick_Metal
  10
2.108239
  20
-3.613219
  0
VERTEX
  8
Thick_Metal
  10
2.260524
  20
-3.638631
  0
VERTEX
  8
Thick_Metal
  10
2.413979
  20
-3.655615
  0
VERTEX
  8
Thick_Metal
  10
2.568136
  20
-3.66412
  0
VERTEX
  8
Thick_Metal
  10
2.722528
  20
-3.66412
  0
VERTEX
  8
Thick_Metal
  10
2.876685
  20
-3.655615
  0
VERTEX
  8
Thick_Metal
  10
3.03014
  20
-3.638631
  0
VERTEX
  8
Thick_Metal
  10
3.182425
  20
-3.613219
  0
VERTEX
  8
Thick_Metal
  10
3.33308
  20
-3.579456
  0
VERTEX
  8
Thick_Metal
  10
3.481646
  20
-3.537446
  0
VERTEX
  8
Thick_Metal
  10
3.627673
  20
-3.487315
  0
VERTEX
  8
Thick_Metal
  10
3.770715
  20
-3.429216
  0
VERTEX
  8
Thick_Metal
  10
3.910341
  20
-3.363325
  0
VERTEX
  8
Thick_Metal
  10
4.046124
  20
-3.289843
  0
VERTEX
  8
Thick_Metal
  10
4.177653
  20
-3.208992
  0
VERTEX
  8
Thick_Metal
  10
4.304529
  20
-3.121019
  0
VERTEX
  8
Thick_Metal
  10
4.426365
  20
-3.026189
  0
VERTEX
  8
Thick_Metal
  10
4.542793
  20
-2.924792
  0
VERTEX
  8
Thick_Metal
  10
4.653458
  20
-2.817136
  0
VERTEX
  8
Thick_Metal
  10
4.758025
  20
-2.703546
  0
VERTEX
  8
Thick_Metal
  10
4.856175
  20
-2.584369
  0
VERTEX
  8
Thick_Metal
  10
4.947612
  20
-2.459965
  0
VERTEX
  8
Thick_Metal
  10
5.032056
  20
-2.330714
  0
VERTEX
  8
Thick_Metal
  10
5.109252
  20
-2.197007
  0
VERTEX
  8
Thick_Metal
  10
5.178965
  20
-2.05925
  0
VERTEX
  8
Thick_Metal
  10
5.240983
  20
-1.917862
  0
VERTEX
  8
Thick_Metal
  10
5.295118
  20
-1.773273
  0
VERTEX
  8
Thick_Metal
  10
5.341207
  20
-1.625921
  0
VERTEX
  8
Thick_Metal
  10
5.379108
  20
-1.476253
  0
VERTEX
  8
Thick_Metal
  10
5.408706
  20
-1.324726
  0
VERTEX
  8
Thick_Metal
  10
5.429912
  20
-1.171797
  0
VERTEX
  8
Thick_Metal
  10
5.442662
  20
-1.017933
  0
VERTEX
  8
Thick_Metal
  10
5.446916
  20
-0.8636
  0
SEQEND
  0
POLYLINE
  8
Thick_Metal
  70
1
  66
1
  0
VERTEX
  8
Thick_Metal
  10
-0.156252
  20
0.271901
  0
VERTEX
  8
Thick_Metal
  10
-0.880602
  20
0.271901
  0
VERTEX
  8
Thick_Metal
  10
-0.880602
  20
-0.271901
  0
VERTEX
  8
Thick_Metal
  10
-0.156252
  20
-0.271901
  0
SEQEND
  0
POLYLINE
  8
Thick_Metal
  70
1
  66
1
  0
VERTEX
  8
Thick_Metal
  10
5.606249
  20
-0.835168
  0
VERTEX
  8
Thick_Metal
  10
6.118442
  20
-1.347361
  0
VERTEX
  8
Thick_Metal
  10
6.502968
  20
-0.962835
  0
VERTEX
  8
Thick_Metal
  10
5.990775
  20
-0.450642
  0
SEQEND
  0
POLYLINE
  8
Thick_Metal
  70
1
  66
1
  0
VERTEX
  8
Thick_Metal
  10
5.990775
  20
0.450642
  0
VERTEX
  8
Thick_Metal
  10
6.502968
  20
0.962835
  0
VERTEX
  8
Thick_Metal
  10
6.118442
  20
1.347361
  0
VERTEX
  8
Thick_Metal
  10
5.606249
  20
0.835168
  0
SEQEND
  0
POLYLINE
  8
Thick_Metal
  70
1
  66
1
  0
VERTEX
  8
Thick_Metal
  10
0.156252
  20
0.271901
  0
VERTEX
  8
Thick_Metal
  10
0.156252
  20
0.8636
  0
VERTEX
  8
Thick_Metal
  10
-0.156252
  20
0.8636
  0
VERTEX
  8
Thick_Metal
  10
-0.156252
  20
0.271901
  0
SEQEND
  0
POLYLINE
  8
Thick_Metal
  70
1
  66
1
  0
VERTEX
  8
Thick_Metal
  10
0.156252
  20
-0.8636
  0
VERTEX
  8
Thick_Metal
  10
0.156252
  20
-0.271901
  0
VERTEX
  8
Thick_Metal
  10
-0.156252
  20
-0.271901
  0
VERTEX
  8
Thick_Metal
  10
-0.156252
  20
-0.8636
  0
SEQEND
  0
POLYLINE
  8
Thick_Metal
  70
1
  66
1
  0
VERTEX
  8
Thick_Metal
  10
5.595464
  20
-0.286899
  0
VERTEX
  8
Thick_Metal
  10
5.990775
  20
-0.450642
  0
VERTEX
  8
Thick_Metal
  10
5.606249
  20
-0.835168
  0
VERTEX
  8
Thick_Metal
  10
5.601782
  20
-0.830701
  0
VERTEX
  8
Thick_Metal
  10
5.595464
  20
-0.830701
  0
SEQEND
  0
POLYLINE
  8
Thick_Metal
  70
1
  66
1
  0
VERTEX
  8
Thick_Metal
  10
5.595464
  20
0.286899
  0
VERTEX
  8
Thick_Metal
  10
5.990775
  20
0.450642
  0
VERTEX
  8
Thick_Metal
  10
5.606249
  20
0.835168
  0
VERTEX
  8
Thick_Metal
  10
5.601782
  20
0.830701
  0
VERTEX
  8
Thick_Metal
  10
5.595464
  20
0.830701
  0
SEQEND
  0
POLYLINE
  8
Thick_Metal
  70
1
  66
1
  0
VERTEX
  8
Thick_Metal
  10
5.595464
  20
-0.254
  0
VERTEX
  8
Thick_Metal
  10
4.985864
  20
-0.254
  0
VERTEX
  8
Thick_Metal
  10
4.985864
  20
-0.8636
  0
VERTEX
  8
Thick_Metal
  10
5.595464
  20
-0.8636
  0
SEQEND
  0
POLYLINE
  8
Thick_Metal
  70
1
  66
1
  0
VERTEX
  8
Thick_Metal
  10
5.595464
  20
0.254
  0
VERTEX
  8
Thick_Metal
  10
4.985864
  20
0.254
  0
VERTEX
  8
Thick_Metal
  10
4.985864
  20
0.8636
  0
VERTEX
  8
Thick_Metal
  10
5.595464
  20
0.8636
  0
SEQEND
  0
ENDSEC
  0
EOF
