  0
SECTION
  2
HEADER
  9
$ACADVER
  1
AC1009
  9
$INSUNITS
  70
4
  9
$EXTMIN
  10
-0.519224
  20
-2.068837
  9
$EXTMAX
  10
3.480185
  20
2.068837
  0
ENDSEC
  0
SECTION
  2
TABLES
  0
TABLE
  2
LTYPE
  70
1
  0
LTYPE
  2
CONTINUOUS
  70
64
  3
Solid line
  72
65
  73
0
  40
0
  0
ENDTAB
  0
TABLE
  2
LAYER
  70
1
  0
LAYER
  2
Thick_Metal
  70
0
  62
31
  6
CONTINUOUS
  0
ENDTAB
  0
ENDSEC
  0
SECTION
  2
BLOCKS
  0
ENDSEC
  0
SECTION
  2
ENTITIES
  0
POLYLINE
  8
Thick_Metal
  70
1
  66
1
  0
VERTEX
  8
Thick_Metal
  10
-0.148158
  20
0.271901
  0
VERTEX
  8
Thick_Metal
  10
0.148158
  20
0.271901
  0
VERTEX
  8
Thick_Metal
  10
0.148158
  20
-0.271901
  0
VERTEX
  8
Thick_Metal
  10
-0.148158
  20
-0.271901
  0
SEQEND
  0
POLYLINE
  8
Thick_Metal
  70
1
  66
1
  0
VERTEX
  8
Thick_Metal
  10
0.148158
  20
0.6
  0
VERTEX
  8
Thick_Metal
  10
0.153475
  20
0.711614
  0
VERTEX
  8
Thick_Metal
  10
0.169377
  20
0.822216
  0
VERTEX
  8
Thick_Metal
  10
0.195721
  20
0.930807
  0
VERTEX
  8
Thick_Metal
  10
0.232267
  20
1.036401
  0
VERTEX
  8
Thick_Metal
  10
0.278686
  20
1.138044
  0
VERTEX
  8
Thick_Metal
  10
0.334556
  20
1.234813
  0
VERTEX
  8
Thick_Metal
  10
0.399372
  20
1.325834
  0
VERTEX
  8
Thick_Metal
  10
0.472546
  20
1.410282
  0
VERTEX
  8
Thick_Metal
  10
0.553416
  20
1.487391
  0
VERTEX
  8
Thick_Metal
  10
0.64125
  20
1.556464
  0
VERTEX
  8
Thick_Metal
  10
0.735252
  20
1.616876
  0
VERTEX
  8
Thick_Metal
  10
0.83457
  20
1.668078
  0
VERTEX
  8
Thick_Metal
  10
0.938306
  20
1.709608
  0
VERTEX
  8
Thick_Metal
  10
1.04552
  20
1.741089
  0
VERTEX
  8
Thick_Metal
  10
1.155241
  20
1.762235
  0
VERTEX
  8
Thick_Metal
  10
1.266475
  20
1.772857
  0
VERTEX
  8
Thick_Metal
  10
1.378215
  20
1.772857
  0
VERTEX
  8
Thick_Metal
  10
1.489449
  20
1.762235
  0
VERTEX
  8
Thick_Metal
  10
1.59917
  20
1.741089
  0
VERTEX
  8
Thick_Metal
  10
1.706384
  20
1.709608
  0
VERTEX
  8
Thick_Metal
  10
1.81012
  20
1.668078
  0
VERTEX
  8
Thick_Metal
  10
1.909439
  20
1.616876
  0
VERTEX
  8
Thick_Metal
  10
2.00344
  20
1.556464
  0
VERTEX
  8
Thick_Metal
  10
2.091274
  20
1.487391
  0
VERTEX
  8
Thick_Metal
  10
2.172144
  20
1.410282
  0
VERTEX
  8
Thick_Metal
  10
2.245318
  20
1.325834
  0
VERTEX
  8
Thick_Metal
  10
2.310134
  20
1.234813
  0
VERTEX
  8
Thick_Metal
  10
2.366004
  20
1.138044
  0
VERTEX
  8
Thick_Metal
  10
2.412423
  20
1.036401
  0
VERTEX
  8
Thick_Metal
  10
2.448969
  20
0.930807
  0
VERTEX
  8
Thick_Metal
  10
2.475313
  20
0.822216
  0
VERTEX
  8
Thick_Metal
  10
2.491215
  20
0.711614
  0
VERTEX
  8
Thick_Metal
  10
2.496532
  20
0.6
  0
VERTEX
  8
Thick_Metal
  10
2.792848
  20
0.6
  0
VERTEX
  8
Thick_Metal
  10
2.786189
  20
0.73978
  0
VERTEX
  8
Thick_Metal
  10
2.766274
  20
0.878295
  0
VERTEX
  8
Thick_Metal
  10
2.733282
  20
1.014289
  0
VERTEX
  8
Thick_Metal
  10
2.687513
  20
1.146531
  0
VERTEX
  8
Thick_Metal
  10
2.62938
  20
1.273823
  0
VERTEX
  8
Thick_Metal
  10
2.559411
  20
1.395014
  0
VERTEX
  8
Thick_Metal
  10
2.478238
  20
1.509005
  0
VERTEX
  8
Thick_Metal
  10
2.386598
  20
1.614763
  0
VERTEX
  8
Thick_Metal
  10
2.28532
  20
1.711332
  0
VERTEX
  8
Thick_Metal
  10
2.17532
  20
1.797836
  0
VERTEX
  8
Thick_Metal
  10
2.057597
  20
1.873493
  0
VERTEX
  8
Thick_Metal
  10
1.933214
  20
1.937617
  0
VERTEX
  8
Thick_Metal
  10
1.803299
  20
1.989627
  0
VERTEX
  8
Thick_Metal
  10
1.669029
  20
2.029052
  0
VERTEX
  8
Thick_Metal
  10
1.531619
  20
2.055535
  0
VERTEX
  8
Thick_Metal
  10
1.392314
  20
2.068837
  0
VERTEX
  8
Thick_Metal
  10
1.252376
  20
2.068837
  0
VERTEX
  8
Thick_Metal
  10
1.113071
  20
2.055535
  0
VERTEX
  8
Thick_Metal
  10
0.975661
  20
2.029052
  0
VERTEX
  8
Thick_Metal
  10
0.841391
  20
1.989627
  0
VERTEX
  8
Thick_Metal
  10
0.711476
  20
1.937617
  0
VERTEX
  8
Thick_Metal
  10
0.587094
  20
1.873493
  0
VERTEX
  8
Thick_Metal
  10
0.46937
  20
1.797836
  0
VERTEX
  8
Thick_Metal
  10
0.35937
  20
1.711332
  0
VERTEX
  8
Thick_Metal
  10
0.258092
  20
1.614763
  0
VERTEX
  8
Thick_Metal
  10
0.166452
  20
1.509005
  0
VERTEX
  8
Thick_Metal
  10
0.085279
  20
1.395014
  0
VERTEX
  8
Thick_Metal
  10
0.01531
  20
1.273823
  0
VERTEX
  8
Thick_Metal
  10
-0.042823
  20
1.146531
  0
VERTEX
  8
Thick_Metal
  10
-0.088592
  20
1.014289
  0
VERTEX
  8
Thick_Metal
  10
-0.121584
  20
0.878295
  0
VERTEX
  8
Thick_Metal
  10
-0.141499
  20
0.73978
  0
VERTEX
  8
Thick_Metal
  10
-0.148158
  20
0.6
  0
SEQEND
  0
POLYLINE
  8
Thick_Metal
  70
1
  66
1
  0
VERTEX
  8
Thick_Metal
  10
2.496532
  20
-0.6
  0
VERTEX
  8
Thick_Metal
  10
2.491215
  20
-0.711614
  0
VERTEX
  8
Thick_Metal
  10
2.475313
  20
-0.822216
  0
VERTEX
  8
Thick_Metal
  10
2.448969
  20
-0.930807
  0
VERTEX
  8
Thick_Metal
  10
2.412423
  20
-1.036401
  0
VERTEX
  8
Thick_Metal
  10
2.366004
  20
-1.138044
  0
VERTEX
  8
Thick_Metal
  10
2.310134
  20
-1.234813
  0
VERTEX
  8
Thick_Metal
  10
2.245318
  20
-1.325834
  0
VERTEX
  8
Thick_Metal
  10
2.172144
  20
-1.410282
  0
VERTEX
  8
Thick_Metal
  10
2.091274
  20
-1.487391
  0
VERTEX
  8
Thick_Metal
  10
2.00344
  20
-1.556464
  0
VERTEX
  8
Thick_Metal
  10
1.909439
  20
-1.616876
  0
VERTEX
  8
Thick_Metal
  10
1.81012
  20
-1.668078
  0
VERTEX
  8
Thick_Metal
  10
1.706384
  20
-1.709608
  0
VERTEX
  8
Thick_Metal
  10
1.59917
  20
-1.741089
  0
VERTEX
  8
Thick_Metal
  10
1.489449
  20
-1.762235
  0
VERTEX
  8
Thick_Metal
  10
1.378215
  20
-1.772857
  0
VERTEX
  8
Thick_Metal
  10
1.266475
  20
-1.772857
  0
VERTEX
  8
Thick_Metal
  10
1.155241
  20
-1.762235
  0
VERTEX
  8
Thick_Metal
  10
1.04552
  20
-1.741089
  0
VERTEX
  8
Thick_Metal
  10
0.938306
  20
-1.709608
  0
VERTEX
  8
Thick_Metal
  10
0.83457
  20
-1.668078
  0
VERTEX
  8
Thick_Metal
  10
0.735252
  20
-1.616876
  0
VERTEX
  8
Thick_Metal
  10
0.64125
  20
-1.556464
  0
VERTEX
  8
Thick_Metal
  10
0.553416
  20
-1.487391
  0
VERTEX
  8
Thick_Metal
  10
0.472546
  20
-1.410282
  0
VERTEX
  8
Thick_Metal
  10
0.399372
  20
-1.325834
  0
VERTEX
  8
Thick_Metal
  10
0.334556
  20
-1.234813
  0
VERTEX
  8
Thick_Metal
  10
0.278686
  20
-1.138044
  0
VERTEX
  8
Thick_Metal
  10
0.232267
  20
-1.036401
  0
VERTEX
  8
Thick_Metal
  10
0.195721
  20
-0.930807
  0
VERTEX
  8
Thick_Metal
  10
0.169377
  20
-0.822216
  0
VERTEX
  8
Thick_Metal
  10
0.153475
  20
-0.711614
  0
VERTEX
  8
Thick_Metal
  10
0.148158
  20
-0.6
  0
VERTEX
  8
Thick_Metal
  10
-0.148158
  20
-0.6
  0
VERTEX
  8
Thick_Metal
  10
-0.141499
  20
-0.73978
  0
VERTEX
  8
Thick_Metal
  10
-0.121584
  20
-0.878295
  0
VERTEX
  8
Thick_Metal
  10
-0.088592
  20
-1.014289
  0
VERTEX
  8
Thick_Metal
  10
-0.042823
  20
-1.146531
  0
VERTEX
  8
Thick_Metal
  10
0.01531
  20
-1.273823
  0
VERTEX
  8
Thick_Metal
  10
0.085279
  20
-1.395014
  0
VERTEX
  8
Thick_Metal
  10
0.166452
  20
-1.509005
  0
VERTEX
  8
Thick_Metal
  10
0.258092
  20
-1.614763
  0
VERTEX
  8
Thick_Metal
  10
0.35937
  20
-1.711332
  0
VERTEX
  8
Thick_Metal
  10
0.46937
  20
-1.797836
  0
VERTEX
  8
Thick_Metal
  10
0.587094
  20
-1.873493
  0
VERTEX
  8
Thick_Metal
  10
0.711476
  20
-1.937617
  0
VERTEX
  8
Thick_Metal
  10
0.841391
  20
-1.989627
  0
VERTEX
  8
Thick_Metal
  10
0.975661
  20
-2.029052
  0
VERTEX
  8
Thick_Metal
  10
1.113071
  20
-2.055535
  0
VERTEX
  8
Thick_Metal
  10
1.252376
  20
-2.068837
  0
VERTEX
  8
Thick_Metal
  10
1.392314
  20
-2.068837
  0
VERTEX
  8
Thick_Metal
  10
1.531619
  20
-2.055535
  0
VERTEX
  8
Thick_Metal
  10
1.669029
  20
-2.029052
  0
VERTEX
  8
Thick_Metal
  10
1.803299
  20
-1.989627
  0
VERTEX
  8
Thick_Metal
  10
1.933214
  20
-1.937617
  0
VERTEX
  8
Thick_Metal
  10
2.057597
  20
-1.873493
  0
VERTEX
  8
Thick_Metal
  10
2.17532
  20
-1.797836
  0
VERTEX
  8
Thick_Metal
  10
2.28532
  20
-1.711332
  0
VERTEX
  8
Thick_Metal
  10
2.386598
  20
-1.614763
  0
VERTEX
  8
Thick_Metal
  10
2.478238
  20
-1.509005
  0
VERTEX
  8
Thick_Metal
  10
2.559411
  20
-1.395014
  0
VERTEX
  8
Thick_Metal
  10
2.62938
  20
-1.273823
  0
VERTEX
  8
Thick_Metal
  10
2.687513
  20
-1.146531
  0
VERTEX
  8
Thick_Metal
  10
2.733282
  20
-1.014289
  0
VERTEX
  8
Thick_Metal
  10
2.766274
  20
-0.878295
  0
VERTEX
  8
Thick_Metal
  10
2.786189
  20
-0.73978
  0
VERTEX
  8
Thick_Metal
  10
2.792848
  20
-0.6
  0
SEQEND
  0
POLYLINE
  8
Thick_Metal
  70
1
  66
1
  0
VERTEX
  8
Thick_Metal
  10
-0.148158
  20
0.271901
  0
VERTEX
  8
Thick_Metal
  10
-0.519224
  20
0.271901
  0
VERTEX
  8
Thick_Metal
  10
-0.519224
  20
-0.271901
  0
VERTEX
  8
Thick_Metal
  10
-0.148158
  20
-0.271901
  0
SEQEND
  0
POLYLINE
  8
Thick_Metal
  70
1
  66
1
  0
VERTEX
  8
Thick_Metal
  10
2.833275
  20
-0.626368
  0
VERTEX
  8
Thick_Metal
  10
3.095659
  20
-0.888752
  0
VERTEX
  8
Thick_Metal
  10
3.480185
  20
-0.504226
  0
VERTEX
  8
Thick_Metal
  10
3.217801
  20
-0.241842
  0
SEQEND
  0
POLYLINE
  8
Thick_Metal
  70
1
  66
1
  0
VERTEX
  8
Thick_Metal
  10
3.217801
  20
0.241842
  0
VERTEX
  8
Thick_Metal
  10
3.480185
  20
0.504226
  0
VERTEX
  8
Thick_Metal
  10
3.095659
  20
0.888752
  0
VERTEX
  8
Thick_Metal
  10
2.833275
  20
0.626368
  0
SEQEND
  0
POLYLINE
  8
Thick_Metal
  70
1
  66
1
  0
VERTEX
  8
Thick_Metal
  10
0.148158
  20
0.271901
  0
VERTEX
  8
Thick_Metal
  10
0.148158
  20
0.6
  0
VERTEX
  8
Thick_Metal
  10
-0.148158
  20
0.6
  0
VERTEX
  8
Thick_Metal
  10
-0.148158
  20
0.271901
  0
SEQEND
  0
POLYLINE
  8
Thick_Metal
  70
1
  66
1
  0
VERTEX
  8
Thick_Metal
  10
0.148158
  20
-0.6
  0
VERTEX
  8
Thick_Metal
  10
0.148158
  20
-0.271901
  0
VERTEX
  8
Thick_Metal
  10
-0.148158
  20
-0.271901
  0
VERTEX
  8
Thick_Metal
  10
-0.148158
  20
-0.6
  0
SEQEND
  0
POLYLINE
  8
Thick_Metal
  70
1
  66
1
  0
VERTEX
  8
Thick_Metal
  10
2.82249
  20
-0.078099
  0
VERTEX
  8
Thick_Metal
  10
3.217801
  20
-0.241842
  0
VERTEX
  8
Thick_Metal
  10
2.833275
  20
-0.626368
  0
VERTEX
  8
Thick_Metal
  10
2.828808
  20
-0.621901
  0
VERTEX
  8
Thick_Metal
  10
2.82249
  20
-0.621901
  0
SEQEND
  0
POLYLINE
  8
Thick_Metal
  70
1
  66
1
  0
VERTEX
  8
Thick_Metal
  10
2.82249
  20
0.078099
  0
VERTEX
  8
Thick_Metal
  10
3.217801
  20
0.241842
  0
VERTEX
  8
Thick_Metal
  10
2.833275
  20
0.626368
  0
VERTEX
  8
Thick_Metal
  10
2.828808
  20
0.621901
  0
VERTEX
  8
Thick_Metal
  10
2.82249
  20
0.621901
  0
SEQEND
  0
POLYLINE
  8
Thick_Metal
  70
1
  66
1
  0
VERTEX
  8
Thick_Metal
  10
2.82249
  20
-0.1
  0
VERTEX
  8
Thick_Metal
  10
2.46689
  20
-0.1
  0
VERTEX
  8
Thick_Metal
  10
2.46689
  20
-0.6
  0
VERTEX
  8
Thick_Metal
  10
2.82249
  20
-0.6
  0
SEQEND
  0
POLYLINE
  8
Thick_Metal
  70
1
  66
1
  0
VERTEX
  8
Thick_Metal
  10
2.82249
  20
0.1
  0
VERTEX
  8
Thick_Metal
  10
2.46689
  20
0.1
  0
VERTEX
  8
Thick_Metal
  10
2.46689
  20
0.6
  0
VERTEX
  8
Thick_Metal
  10
2.82249
  20
0.6
  0
SEQEND
  0
ENDSEC
  0
EOF
