  0
SECTION
  2
HEADER
  9
$ACADVER
  1
AC1009
  9
$INSUNITS
  70
4
  9
$EXTMIN
  10
-1.959941
  20
-7.848772
  9
$EXTMAX
  10
13.62959
  20
7.848772
  0
ENDSEC
  0
SECTION
  2
TABLES
  0
TABLE
  2
LTYPE
  70
1
  0
LTYPE
  2
CONTINUOUS
  70
64
  3
Solid line
  72
65
  73
0
  40
0
  0
ENDTAB
  0
TABLE
  2
LAYER
  70
1
  0
LAYER
  2
Thick_Metal
  70
0
  62
31
  6
CONTINUOUS
  0
ENDTAB
  0
ENDSEC
  0
SECTION
  2
BLOCKS
  0
ENDSEC
  0
SECTION
  2
ENTITIES
  0
POLYLINE
  8
Thick_Metal
  70
1
  66
1
  0
VERTEX
  8
Thick_Metal
  10
-0.449822
  20
0.820332
  0
VERTEX
  8
Thick_Metal
  10
0.449822
  20
0.820332
  0
VERTEX
  8
Thick_Metal
  10
0.449822
  20
-0.820332
  0
VERTEX
  8
Thick_Metal
  10
-0.449822
  20
-0.820332
  0
SEQEND
  0
POLYLINE
  8
Thick_Metal
  70
1
  66
1
  0
VERTEX
  8
Thick_Metal
  10
0.449822
  20
1.954
  0
VERTEX
  8
Thick_Metal
  10
0.463789
  20
2.327286
  0
VERTEX
  8
Thick_Metal
  10
0.505613
  20
2.698485
  0
VERTEX
  8
Thick_Metal
  10
0.57506
  20
3.065521
  0
VERTEX
  8
Thick_Metal
  10
0.671742
  20
3.42634
  0
VERTEX
  8
Thick_Metal
  10
0.795116
  20
3.778925
  0
VERTEX
  8
Thick_Metal
  10
0.944495
  20
4.121305
  0
VERTEX
  8
Thick_Metal
  10
1.119042
  20
4.451564
  0
VERTEX
  8
Thick_Metal
  10
1.317782
  20
4.767856
  0
VERTEX
  8
Thick_Metal
  10
1.539602
  20
5.068411
  0
VERTEX
  8
Thick_Metal
  10
1.783262
  20
5.35155
  0
VERTEX
  8
Thick_Metal
  10
2.0474
  20
5.615688
  0
VERTEX
  8
Thick_Metal
  10
2.330539
  20
5.859348
  0
VERTEX
  8
Thick_Metal
  10
2.631094
  20
6.081168
  0
VERTEX
  8
Thick_Metal
  10
2.947386
  20
6.279908
  0
VERTEX
  8
Thick_Metal
  10
3.277645
  20
6.454455
  0
VERTEX
  8
Thick_Metal
  10
3.620025
  20
6.603834
  0
VERTEX
  8
Thick_Metal
  10
3.97261
  20
6.727208
  0
VERTEX
  8
Thick_Metal
  10
4.333429
  20
6.82389
  0
VERTEX
  8
Thick_Metal
  10
4.700465
  20
6.893337
  0
VERTEX
  8
Thick_Metal
  10
5.071664
  20
6.935161
  0
VERTEX
  8
Thick_Metal
  10
5.44495
  20
6.949128
  0
VERTEX
  8
Thick_Metal
  10
5.818236
  20
6.935161
  0
VERTEX
  8
Thick_Metal
  10
6.189435
  20
6.893337
  0
VERTEX
  8
Thick_Metal
  10
6.556471
  20
6.82389
  0
VERTEX
  8
Thick_Metal
  10
6.91729
  20
6.727208
  0
VERTEX
  8
Thick_Metal
  10
7.269875
  20
6.603834
  0
VERTEX
  8
Thick_Metal
  10
7.612255
  20
6.454455
  0
VERTEX
  8
Thick_Metal
  10
7.942514
  20
6.279908
  0
VERTEX
  8
Thick_Metal
  10
8.258806
  20
6.081168
  0
VERTEX
  8
Thick_Metal
  10
8.559361
  20
5.859348
  0
VERTEX
  8
Thick_Metal
  10
8.8425
  20
5.615688
  0
VERTEX
  8
Thick_Metal
  10
9.106638
  20
5.35155
  0
VERTEX
  8
Thick_Metal
  10
9.350298
  20
5.068411
  0
VERTEX
  8
Thick_Metal
  10
9.572118
  20
4.767856
  0
VERTEX
  8
Thick_Metal
  10
9.770858
  20
4.451564
  0
VERTEX
  8
Thick_Metal
  10
9.945405
  20
4.121305
  0
VERTEX
  8
Thick_Metal
  10
10.094784
  20
3.778925
  0
VERTEX
  8
Thick_Metal
  10
10.218158
  20
3.42634
  0
VERTEX
  8
Thick_Metal
  10
10.31484
  20
3.065521
  0
VERTEX
  8
Thick_Metal
  10
10.384287
  20
2.698485
  0
VERTEX
  8
Thick_Metal
  10
10.426111
  20
2.327286
  0
VERTEX
  8
Thick_Metal
  10
10.440078
  20
1.954
  0
VERTEX
  8
Thick_Metal
  10
11.339722
  20
1.954
  0
VERTEX
  8
Thick_Metal
  10
11.323239
  20
2.394517
  0
VERTEX
  8
Thick_Metal
  10
11.273882
  20
2.83257
  0
VERTEX
  8
Thick_Metal
  10
11.191928
  20
3.26571
  0
VERTEX
  8
Thick_Metal
  10
11.077834
  20
3.691515
  0
VERTEX
  8
Thick_Metal
  10
10.932239
  20
4.107602
  0
VERTEX
  8
Thick_Metal
  10
10.755956
  20
4.511646
  0
VERTEX
  8
Thick_Metal
  10
10.549972
  20
4.901386
  0
VERTEX
  8
Thick_Metal
  10
10.315439
  20
5.274643
  0
VERTEX
  8
Thick_Metal
  10
10.053668
  20
5.62933
  0
VERTEX
  8
Thick_Metal
  10
9.766124
  20
5.963463
  0
VERTEX
  8
Thick_Metal
  10
9.454413
  20
6.275174
  0
VERTEX
  8
Thick_Metal
  10
9.12028
  20
6.562718
  0
VERTEX
  8
Thick_Metal
  10
8.765593
  20
6.824489
  0
VERTEX
  8
Thick_Metal
  10
8.392336
  20
7.059022
  0
VERTEX
  8
Thick_Metal
  10
8.002596
  20
7.265006
  0
VERTEX
  8
Thick_Metal
  10
7.598552
  20
7.441289
  0
VERTEX
  8
Thick_Metal
  10
7.182465
  20
7.586884
  0
VERTEX
  8
Thick_Metal
  10
6.75666
  20
7.700978
  0
VERTEX
  8
Thick_Metal
  10
6.32352
  20
7.782932
  0
VERTEX
  8
Thick_Metal
  10
5.885467
  20
7.832289
  0
VERTEX
  8
Thick_Metal
  10
5.44495
  20
7.848772
  0
VERTEX
  8
Thick_Metal
  10
5.004433
  20
7.832289
  0
VERTEX
  8
Thick_Metal
  10
4.56638
  20
7.782932
  0
VERTEX
  8
Thick_Metal
  10
4.13324
  20
7.700978
  0
VERTEX
  8
Thick_Metal
  10
3.707435
  20
7.586884
  0
VERTEX
  8
Thick_Metal
  10
3.291348
  20
7.441289
  0
VERTEX
  8
Thick_Metal
  10
2.887304
  20
7.265006
  0
VERTEX
  8
Thick_Metal
  10
2.497564
  20
7.059022
  0
VERTEX
  8
Thick_Metal
  10
2.124307
  20
6.824489
  0
VERTEX
  8
Thick_Metal
  10
1.76962
  20
6.562718
  0
VERTEX
  8
Thick_Metal
  10
1.435487
  20
6.275174
  0
VERTEX
  8
Thick_Metal
  10
1.123776
  20
5.963463
  0
VERTEX
  8
Thick_Metal
  10
0.836232
  20
5.62933
  0
VERTEX
  8
Thick_Metal
  10
0.574461
  20
5.274643
  0
VERTEX
  8
Thick_Metal
  10
0.339928
  20
4.901386
  0
VERTEX
  8
Thick_Metal
  10
0.133944
  20
4.511646
  0
VERTEX
  8
Thick_Metal
  10
-0.042339
  20
4.107602
  0
VERTEX
  8
Thick_Metal
  10
-0.187934
  20
3.691515
  0
VERTEX
  8
Thick_Metal
  10
-0.302028
  20
3.26571
  0
VERTEX
  8
Thick_Metal
  10
-0.383982
  20
2.83257
  0
VERTEX
  8
Thick_Metal
  10
-0.433339
  20
2.394517
  0
VERTEX
  8
Thick_Metal
  10
-0.449822
  20
1.954
  0
SEQEND
  0
POLYLINE
  8
Thick_Metal
  70
1
  66
1
  0
VERTEX
  8
Thick_Metal
  10
10.440078
  20
-1.954
  0
VERTEX
  8
Thick_Metal
  10
10.426111
  20
-2.327286
  0
VERTEX
  8
Thick_Metal
  10
10.384287
  20
-2.698485
  0
VERTEX
  8
Thick_Metal
  10
10.31484
  20
-3.065521
  0
VERTEX
  8
Thick_Metal
  10
10.218158
  20
-3.42634
  0
VERTEX
  8
Thick_Metal
  10
10.094784
  20
-3.778925
  0
VERTEX
  8
Thick_Metal
  10
9.945405
  20
-4.121305
  0
VERTEX
  8
Thick_Metal
  10
9.770858
  20
-4.451564
  0
VERTEX
  8
Thick_Metal
  10
9.572118
  20
-4.767856
  0
VERTEX
  8
Thick_Metal
  10
9.350298
  20
-5.068411
  0
VERTEX
  8
Thick_Metal
  10
9.106638
  20
-5.35155
  0
VERTEX
  8
Thick_Metal
  10
8.8425
  20
-5.615688
  0
VERTEX
  8
Thick_Metal
  10
8.559361
  20
-5.859348
  0
VERTEX
  8
Thick_Metal
  10
8.258806
  20
-6.081168
  0
VERTEX
  8
Thick_Metal
  10
7.942514
  20
-6.279908
  0
VERTEX
  8
Thick_Metal
  10
7.612255
  20
-6.454455
  0
VERTEX
  8
Thick_Metal
  10
7.269875
  20
-6.603834
  0
VERTEX
  8
Thick_Metal
  10
6.91729
  20
-6.727208
  0
VERTEX
  8
Thick_Metal
  10
6.556471
  20
-6.82389
  0
VERTEX
  8
Thick_Metal
  10
6.189435
  20
-6.893337
  0
VERTEX
  8
Thick_Metal
  10
5.818236
  20
-6.935161
  0
VERTEX
  8
Thick_Metal
  10
5.44495
  20
-6.949128
  0
VERTEX
  8
Thick_Metal
  10
5.071664
  20
-6.935161
  0
VERTEX
  8
Thick_Metal
  10
4.700465
  20
-6.893337
  0
VERTEX
  8
Thick_Metal
  10
4.333429
  20
-6.82389
  0
VERTEX
  8
Thick_Metal
  10
3.97261
  20
-6.727208
  0
VERTEX
  8
Thick_Metal
  10
3.620025
  20
-6.603834
  0
VERTEX
  8
Thick_Metal
  10
3.277645
  20
-6.454455
  0
VERTEX
  8
Thick_Metal
  10
2.947386
  20
-6.279908
  0
VERTEX
  8
Thick_Metal
  10
2.631094
  20
-6.081168
  0
VERTEX
  8
Thick_Metal
  10
2.330539
  20
-5.859348
  0
VERTEX
  8
Thick_Metal
  10
2.0474
  20
-5.615688
  0
VERTEX
  8
Thick_Metal
  10
1.783262
  20
-5.35155
  0
VERTEX
  8
Thick_Metal
  10
1.539602
  20
-5.068411
  0
VERTEX
  8
Thick_Metal
  10
1.317782
  20
-4.767856
  0
VERTEX
  8
Thick_Metal
  10
1.119042
  20
-4.451564
  0
VERTEX
  8
Thick_Metal
  10
0.944495
  20
-4.121305
  0
VERTEX
  8
Thick_Metal
  10
0.795116
  20
-3.778925
  0
VERTEX
  8
Thick_Metal
  10
0.671742
  20
-3.42634
  0
VERTEX
  8
Thick_Metal
  10
0.57506
  20
-3.065521
  0
VERTEX
  8
Thick_Metal
  10
0.505613
  20
-2.698485
  0
VERTEX
  8
Thick_Metal
  10
0.463789
  20
-2.327286
  0
VERTEX
  8
Thick_Metal
  10
0.449822
  20
-1.954
  0
VERTEX
  8
Thick_Metal
  10
-0.449822
  20
-1.954
  0
VERTEX
  8
Thick_Metal
  10
-0.433339
  20
-2.394517
  0
VERTEX
  8
Thick_Metal
  10
-0.383982
  20
-2.83257
  0
VERTEX
  8
Thick_Metal
  10
-0.302028
  20
-3.26571
  0
VERTEX
  8
Thick_Metal
  10
-0.187934
  20
-3.691515
  0
VERTEX
  8
Thick_Metal
  10
-0.042339
  20
-4.107602
  0
VERTEX
  8
Thick_Metal
  10
0.133944
  20
-4.511646
  0
VERTEX
  8
Thick_Metal
  10
0.339928
  20
-4.901386
  0
VERTEX
  8
Thick_Metal
  10
0.574461
  20
-5.274643
  0
VERTEX
  8
Thick_Metal
  10
0.836232
  20
-5.62933
  0
VERTEX
  8
Thick_Metal
  10
1.123776
  20
-5.963463
  0
VERTEX
  8
Thick_Metal
  10
1.435487
  20
-6.275174
  0
VERTEX
  8
Thick_Metal
  10
1.76962
  20
-6.562718
  0
VERTEX
  8
Thick_Metal
  10
2.124307
  20
-6.824489
  0
VERTEX
  8
Thick_Metal
  10
2.497564
  20
-7.059022
  0
VERTEX
  8
Thick_Metal
  10
2.887304
  20
-7.265006
  0
VERTEX
  8
Thick_Metal
  10
3.291348
  20
-7.441289
  0
VERTEX
  8
Thick_Metal
  10
3.707435
  20
-7.586884
  0
VERTEX
  8
Thick_Metal
  10
4.13324
  20
-7.700978
  0
VERTEX
  8
Thick_Metal
  10
4.56638
  20
-7.782932
  0
VERTEX
  8
Thick_Metal
  10
5.004433
  20
-7.832289
  0
VERTEX
  8
Thick_Metal
  10
5.44495
  20
-7.848772
  0
VERTEX
  8
Thick_Metal
  10
5.885467
  20
-7.832289
  0
VERTEX
  8
Thick_Metal
  10
6.32352
  20
-7.782932
  0
VERTEX
  8
Thick_Metal
  10
6.75666
  20
-7.700978
  0
VERTEX
  8
Thick_Metal
  10
7.182465
  20
-7.586884
  0
VERTEX
  8
Thick_Metal
  10
7.598552
  20
-7.441289
  0
VERTEX
  8
Thick_Metal
  10
8.002596
  20
-7.265006
  0
VERTEX
  8
Thick_Metal
  10
8.392336
  20
-7.059022
  0
VERTEX
  8
Thick_Metal
  10
8.765593
  20
-6.824489
  0
VERTEX
  8
Thick_Metal
  10
9.12028
  20
-6.562718
  0
VERTEX
  8
Thick_Metal
  10
9.454413
  20
-6.275174
  0
VERTEX
  8
Thick_Metal
  10
9.766124
  20
-5.963463
  0
VERTEX
  8
Thick_Metal
  10
10.053668
  20
-5.62933
  0
VERTEX
  8
Thick_Metal
  10
10.315439
  20
-5.274643
  0
VERTEX
  8
Thick_Metal
  10
10.549972
  20
-4.901386
  0
VERTEX
  8
Thick_Metal
  10
10.755956
  20
-4.511646
  0
VERTEX
  8
Thick_Metal
  10
10.932239
  20
-4.107602
  0
VERTEX
  8
Thick_Metal
  10
11.077834
  20
-3.691515
  0
VERTEX
  8
Thick_Metal
  10
11.191928
  20
-3.26571
  0
VERTEX
  8
Thick_Metal
  10
11.273882
  20
-2.83257
  0
VERTEX
  8
Thick_Metal
  10
11.323239
  20
-2.394517
  0
VERTEX
  8
Thick_Metal
  10
11.339722
  20
-1.954
  0
SEQEND
  0
POLYLINE
  8
Thick_Metal
  70
1
  66
1
  0
VERTEX
  8
Thick_Metal
  10
-0.449822
  20
0.820332
  0
VERTEX
  8
Thick_Metal
  10
-1.959941
  20
0.820332
  0
VERTEX
  8
Thick_Metal
  10
-1.959941
  20
-0.820332
  0
VERTEX
  8
Thick_Metal
  10
-0.449822
  20
-0.820332
  0
SEQEND
  0
POLYLINE
  8
Thick_Metal
  70
1
  66
1
  0
VERTEX
  8
Thick_Metal
  10
11.40165
  20
-1.929199
  0
VERTEX
  8
Thick_Metal
  10
12.469466
  20
-2.997015
  0
VERTEX
  8
Thick_Metal
  10
13.62959
  20
-1.83689
  0
VERTEX
  8
Thick_Metal
  10
12.561775
  20
-0.769074
  0
SEQEND
  0
POLYLINE
  8
Thick_Metal
  70
1
  66
1
  0
VERTEX
  8
Thick_Metal
  10
12.561775
  20
0.769074
  0
VERTEX
  8
Thick_Metal
  10
13.62959
  20
1.83689
  0
VERTEX
  8
Thick_Metal
  10
12.469466
  20
2.997015
  0
VERTEX
  8
Thick_Metal
  10
11.40165
  20
1.929199
  0
SEQEND
  0
POLYLINE
  8
Thick_Metal
  70
1
  66
1
  0
VERTEX
  8
Thick_Metal
  10
0.449822
  20
0.820332
  0
VERTEX
  8
Thick_Metal
  10
0.449822
  20
1.954
  0
VERTEX
  8
Thick_Metal
  10
-0.449822
  20
1.954
  0
VERTEX
  8
Thick_Metal
  10
-0.449822
  20
0.820332
  0
SEQEND
  0
POLYLINE
  8
Thick_Metal
  70
1
  66
1
  0
VERTEX
  8
Thick_Metal
  10
0.449822
  20
-1.954
  0
VERTEX
  8
Thick_Metal
  10
0.449822
  20
-0.820332
  0
VERTEX
  8
Thick_Metal
  10
-0.449822
  20
-0.820332
  0
VERTEX
  8
Thick_Metal
  10
-0.449822
  20
-1.954
  0
SEQEND
  0
POLYLINE
  8
Thick_Metal
  70
1
  66
1
  0
VERTEX
  8
Thick_Metal
  10
11.3899
  20
-0.283668
  0
VERTEX
  8
Thick_Metal
  10
12.561775
  20
-0.769074
  0
VERTEX
  8
Thick_Metal
  10
11.40165
  20
-1.929199
  0
VERTEX
  8
Thick_Metal
  10
11.396783
  20
-1.924332
  0
VERTEX
  8
Thick_Metal
  10
11.3899
  20
-1.924332
  0
SEQEND
  0
POLYLINE
  8
Thick_Metal
  70
1
  66
1
  0
VERTEX
  8
Thick_Metal
  10
11.3899
  20
0.283668
  0
VERTEX
  8
Thick_Metal
  10
12.561775
  20
0.769074
  0
VERTEX
  8
Thick_Metal
  10
11.40165
  20
1.929199
  0
VERTEX
  8
Thick_Metal
  10
11.396783
  20
1.924332
  0
VERTEX
  8
Thick_Metal
  10
11.3899
  20
1.924332
  0
SEQEND
  0
POLYLINE
  8
Thick_Metal
  70
1
  66
1
  0
VERTEX
  8
Thick_Metal
  10
11.3899
  20
-0.254
  0
VERTEX
  8
Thick_Metal
  10
10.3899
  20
-0.254
  0
VERTEX
  8
Thick_Metal
  10
10.3899
  20
-1.954
  0
VERTEX
  8
Thick_Metal
  10
11.3899
  20
-1.954
  0
SEQEND
  0
POLYLINE
  8
Thick_Metal
  70
1
  66
1
  0
VERTEX
  8
Thick_Metal
  10
11.3899
  20
0.254
  0
VERTEX
  8
Thick_Metal
  10
10.3899
  20
0.254
  0
VERTEX
  8
Thick_Metal
  10
10.3899
  20
1.954
  0
VERTEX
  8
Thick_Metal
  10
11.3899
  20
1.954
  0
SEQEND
  0
ENDSEC
  0
EOF
