  0
SECTION
  2
HEADER
  9
$ACADVER
  1
AC1009
  9
$INSUNITS
  70
4
  9
$EXTMIN
  10
-0.480442
  20
-1.996437
  9
$EXTMAX
  10
3.123099
  20
1.996437
  0
ENDSEC
  0
SECTION
  2
TABLES
  0
TABLE
  2
LTYPE
  70
1
  0
LTYPE
  2
CONTINUOUS
  70
64
  3
Solid line
  72
65
  73
0
  40
0
  0
ENDTAB
  0
TABLE
  2
LAYER
  70
1
  0
LAYER
  2
Thick_Metal
  70
0
  62
31
  6
CONTINUOUS
  0
ENDTAB
  0
ENDSEC
  0
SECTION
  2
BLOCKS
  0
ENDSEC
  0
SECTION
  2
ENTITIES
  0
POLYLINE
  8
Thick_Metal
  70
1
  66
1
  0
VERTEX
  8
Thick_Metal
  10
-0.060485
  20
0.104318
  0
VERTEX
  8
Thick_Metal
  10
0.060485
  20
0.104318
  0
VERTEX
  8
Thick_Metal
  10
0.060485
  20
-0.104318
  0
VERTEX
  8
Thick_Metal
  10
-0.060485
  20
-0.104318
  0
SEQEND
  0
POLYLINE
  8
Thick_Metal
  70
1
  66
1
  0
VERTEX
  8
Thick_Metal
  10
0.060485
  20
0.598833
  0
VERTEX
  8
Thick_Metal
  10
0.061667
  20
0.653771
  0
VERTEX
  8
Thick_Metal
  10
0.065212
  20
0.708606
  0
VERTEX
  8
Thick_Metal
  10
0.071113
  20
0.763239
  0
VERTEX
  8
Thick_Metal
  10
0.079358
  20
0.817567
  0
VERTEX
  8
Thick_Metal
  10
0.089934
  20
0.87149
  0
VERTEX
  8
Thick_Metal
  10
0.102819
  20
0.924908
  0
VERTEX
  8
Thick_Metal
  10
0.117991
  20
0.977723
  0
VERTEX
  8
Thick_Metal
  10
0.13542
  20
1.029836
  0
VERTEX
  8
Thick_Metal
  10
0.155076
  20
1.08115
  0
VERTEX
  8
Thick_Metal
  10
0.176921
  20
1.131572
  0
VERTEX
  8
Thick_Metal
  10
0.200915
  20
1.181007
  0
VERTEX
  8
Thick_Metal
  10
0.227014
  20
1.229364
  0
VERTEX
  8
Thick_Metal
  10
0.255169
  20
1.276553
  0
VERTEX
  8
Thick_Metal
  10
0.285328
  20
1.322487
  0
VERTEX
  8
Thick_Metal
  10
0.317435
  20
1.367082
  0
VERTEX
  8
Thick_Metal
  10
0.351431
  20
1.410253
  0
VERTEX
  8
Thick_Metal
  10
0.387254
  20
1.451922
  0
VERTEX
  8
Thick_Metal
  10
0.424835
  20
1.492012
  0
VERTEX
  8
Thick_Metal
  10
0.464107
  20
1.530447
  0
VERTEX
  8
Thick_Metal
  10
0.504995
  20
1.567158
  0
VERTEX
  8
Thick_Metal
  10
0.547426
  20
1.602075
  0
VERTEX
  8
Thick_Metal
  10
0.591319
  20
1.635134
  0
VERTEX
  8
Thick_Metal
  10
0.636594
  20
1.666275
  0
VERTEX
  8
Thick_Metal
  10
0.683166
  20
1.695439
  0
VERTEX
  8
Thick_Metal
  10
0.73095
  20
1.722572
  0
VERTEX
  8
Thick_Metal
  10
0.779858
  20
1.747624
  0
VERTEX
  8
Thick_Metal
  10
0.829798
  20
1.770549
  0
VERTEX
  8
Thick_Metal
  10
0.880677
  20
1.791304
  0
VERTEX
  8
Thick_Metal
  10
0.932403
  20
1.809851
  0
VERTEX
  8
Thick_Metal
  10
0.984879
  20
1.826155
  0
VERTEX
  8
Thick_Metal
  10
1.038007
  20
1.840187
  0
VERTEX
  8
Thick_Metal
  10
1.09169
  20
1.85192
  0
VERTEX
  8
Thick_Metal
  10
1.145829
  20
1.861333
  0
VERTEX
  8
Thick_Metal
  10
1.200322
  20
1.868408
  0
VERTEX
  8
Thick_Metal
  10
1.255068
  20
1.873131
  0
VERTEX
  8
Thick_Metal
  10
1.309968
  20
1.875495
  0
VERTEX
  8
Thick_Metal
  10
1.364918
  20
1.875495
  0
VERTEX
  8
Thick_Metal
  10
1.419818
  20
1.873131
  0
VERTEX
  8
Thick_Metal
  10
1.474564
  20
1.868408
  0
VERTEX
  8
Thick_Metal
  10
1.529057
  20
1.861333
  0
VERTEX
  8
Thick_Metal
  10
1.583196
  20
1.85192
  0
VERTEX
  8
Thick_Metal
  10
1.636879
  20
1.840187
  0
VERTEX
  8
Thick_Metal
  10
1.690007
  20
1.826155
  0
VERTEX
  8
Thick_Metal
  10
1.742483
  20
1.809851
  0
VERTEX
  8
Thick_Metal
  10
1.794209
  20
1.791304
  0
VERTEX
  8
Thick_Metal
  10
1.845088
  20
1.770549
  0
VERTEX
  8
Thick_Metal
  10
1.895028
  20
1.747624
  0
VERTEX
  8
Thick_Metal
  10
1.943936
  20
1.722572
  0
VERTEX
  8
Thick_Metal
  10
1.99172
  20
1.695439
  0
VERTEX
  8
Thick_Metal
  10
2.038292
  20
1.666275
  0
VERTEX
  8
Thick_Metal
  10
2.083567
  20
1.635134
  0
VERTEX
  8
Thick_Metal
  10
2.12746
  20
1.602075
  0
VERTEX
  8
Thick_Metal
  10
2.169891
  20
1.567158
  0
VERTEX
  8
Thick_Metal
  10
2.210779
  20
1.530447
  0
VERTEX
  8
Thick_Metal
  10
2.250051
  20
1.492012
  0
VERTEX
  8
Thick_Metal
  10
2.287632
  20
1.451922
  0
VERTEX
  8
Thick_Metal
  10
2.323455
  20
1.410253
  0
VERTEX
  8
Thick_Metal
  10
2.357451
  20
1.367082
  0
VERTEX
  8
Thick_Metal
  10
2.389558
  20
1.322487
  0
VERTEX
  8
Thick_Metal
  10
2.419717
  20
1.276553
  0
VERTEX
  8
Thick_Metal
  10
2.447872
  20
1.229364
  0
VERTEX
  8
Thick_Metal
  10
2.473971
  20
1.181007
  0
VERTEX
  8
Thick_Metal
  10
2.497965
  20
1.131572
  0
VERTEX
  8
Thick_Metal
  10
2.51981
  20
1.08115
  0
VERTEX
  8
Thick_Metal
  10
2.539466
  20
1.029836
  0
VERTEX
  8
Thick_Metal
  10
2.556895
  20
0.977723
  0
VERTEX
  8
Thick_Metal
  10
2.572067
  20
0.924908
  0
VERTEX
  8
Thick_Metal
  10
2.584952
  20
0.87149
  0
VERTEX
  8
Thick_Metal
  10
2.595528
  20
0.817567
  0
VERTEX
  8
Thick_Metal
  10
2.603773
  20
0.763239
  0
VERTEX
  8
Thick_Metal
  10
2.609674
  20
0.708606
  0
VERTEX
  8
Thick_Metal
  10
2.613219
  20
0.653771
  0
VERTEX
  8
Thick_Metal
  10
2.614401
  20
0.598833
  0
VERTEX
  8
Thick_Metal
  10
2.735371
  20
0.598833
  0
VERTEX
  8
Thick_Metal
  10
2.734077
  20
0.658975
  0
VERTEX
  8
Thick_Metal
  10
2.730196
  20
0.719006
  0
VERTEX
  8
Thick_Metal
  10
2.723736
  20
0.778814
  0
VERTEX
  8
Thick_Metal
  10
2.71471
  20
0.838288
  0
VERTEX
  8
Thick_Metal
  10
2.703133
  20
0.89732
  0
VERTEX
  8
Thick_Metal
  10
2.689027
  20
0.955799
  0
VERTEX
  8
Thick_Metal
  10
2.672418
  20
1.013616
  0
VERTEX
  8
Thick_Metal
  10
2.653337
  20
1.070666
  0
VERTEX
  8
Thick_Metal
  10
2.631819
  20
1.126842
  0
VERTEX
  8
Thick_Metal
  10
2.607905
  20
1.18204
  0
VERTEX
  8
Thick_Metal
  10
2.581637
  20
1.236158
  0
VERTEX
  8
Thick_Metal
  10
2.553066
  20
1.289096
  0
VERTEX
  8
Thick_Metal
  10
2.522244
  20
1.340755
  0
VERTEX
  8
Thick_Metal
  10
2.489228
  20
1.391041
  0
VERTEX
  8
Thick_Metal
  10
2.454079
  20
1.43986
  0
VERTEX
  8
Thick_Metal
  10
2.416862
  20
1.487122
  0
VERTEX
  8
Thick_Metal
  10
2.377647
  20
1.532738
  0
VERTEX
  8
Thick_Metal
  10
2.336505
  20
1.576625
  0
VERTEX
  8
Thick_Metal
  10
2.293513
  20
1.618702
  0
VERTEX
  8
Thick_Metal
  10
2.248751
  20
1.65889
  0
VERTEX
  8
Thick_Metal
  10
2.202301
  20
1.697115
  0
VERTEX
  8
Thick_Metal
  10
2.15425
  20
1.733306
  0
VERTEX
  8
Thick_Metal
  10
2.104686
  20
1.767397
  0
VERTEX
  8
Thick_Metal
  10
2.053701
  20
1.799323
  0
VERTEX
  8
Thick_Metal
  10
2.00139
  20
1.829027
  0
VERTEX
  8
Thick_Metal
  10
1.94785
  20
1.856452
  0
VERTEX
  8
Thick_Metal
  10
1.893179
  20
1.881549
  0
VERTEX
  8
Thick_Metal
  10
1.837479
  20
1.90427
  0
VERTEX
  8
Thick_Metal
  10
1.780854
  20
1.924574
  0
VERTEX
  8
Thick_Metal
  10
1.723407
  20
1.942423
  0
VERTEX
  8
Thick_Metal
  10
1.665245
  20
1.957784
  0
VERTEX
  8
Thick_Metal
  10
1.606476
  20
1.970629
  0
VERTEX
  8
Thick_Metal
  10
1.54721
  20
1.980933
  0
VERTEX
  8
Thick_Metal
  10
1.487554
  20
1.988678
  0
VERTEX
  8
Thick_Metal
  10
1.427621
  20
1.993849
  0
VERTEX
  8
Thick_Metal
  10
1.367521
  20
1.996437
  0
VERTEX
  8
Thick_Metal
  10
1.307365
  20
1.996437
  0
VERTEX
  8
Thick_Metal
  10
1.247265
  20
1.993849
  0
VERTEX
  8
Thick_Metal
  10
1.187332
  20
1.988678
  0
VERTEX
  8
Thick_Metal
  10
1.127676
  20
1.980933
  0
VERTEX
  8
Thick_Metal
  10
1.06841
  20
1.970629
  0
VERTEX
  8
Thick_Metal
  10
1.009641
  20
1.957784
  0
VERTEX
  8
Thick_Metal
  10
0.951479
  20
1.942423
  0
VERTEX
  8
Thick_Metal
  10
0.894032
  20
1.924574
  0
VERTEX
  8
Thick_Metal
  10
0.837407
  20
1.90427
  0
VERTEX
  8
Thick_Metal
  10
0.781707
  20
1.881549
  0
VERTEX
  8
Thick_Metal
  10
0.727036
  20
1.856452
  0
VERTEX
  8
Thick_Metal
  10
0.673496
  20
1.829027
  0
VERTEX
  8
Thick_Metal
  10
0.621185
  20
1.799323
  0
VERTEX
  8
Thick_Metal
  10
0.5702
  20
1.767397
  0
VERTEX
  8
Thick_Metal
  10
0.520636
  20
1.733306
  0
VERTEX
  8
Thick_Metal
  10
0.472585
  20
1.697115
  0
VERTEX
  8
Thick_Metal
  10
0.426135
  20
1.65889
  0
VERTEX
  8
Thick_Metal
  10
0.381373
  20
1.618702
  0
VERTEX
  8
Thick_Metal
  10
0.338381
  20
1.576625
  0
VERTEX
  8
Thick_Metal
  10
0.297239
  20
1.532738
  0
VERTEX
  8
Thick_Metal
  10
0.258024
  20
1.487122
  0
VERTEX
  8
Thick_Metal
  10
0.220807
  20
1.43986
  0
VERTEX
  8
Thick_Metal
  10
0.185658
  20
1.391041
  0
VERTEX
  8
Thick_Metal
  10
0.152642
  20
1.340755
  0
VERTEX
  8
Thick_Metal
  10
0.12182
  20
1.289096
  0
VERTEX
  8
Thick_Metal
  10
0.093249
  20
1.236158
  0
VERTEX
  8
Thick_Metal
  10
0.066981
  20
1.18204
  0
VERTEX
  8
Thick_Metal
  10
0.043067
  20
1.126842
  0
VERTEX
  8
Thick_Metal
  10
0.021549
  20
1.070666
  0
VERTEX
  8
Thick_Metal
  10
0.002468
  20
1.013616
  0
VERTEX
  8
Thick_Metal
  10
-0.014141
  20
0.955799
  0
VERTEX
  8
Thick_Metal
  10
-0.028247
  20
0.89732
  0
VERTEX
  8
Thick_Metal
  10
-0.039824
  20
0.838288
  0
VERTEX
  8
Thick_Metal
  10
-0.04885
  20
0.778814
  0
VERTEX
  8
Thick_Metal
  10
-0.05531
  20
0.719006
  0
VERTEX
  8
Thick_Metal
  10
-0.059191
  20
0.658975
  0
VERTEX
  8
Thick_Metal
  10
-0.060485
  20
0.598833
  0
SEQEND
  0
POLYLINE
  8
Thick_Metal
  70
1
  66
1
  0
VERTEX
  8
Thick_Metal
  10
2.614401
  20
-0.598833
  0
VERTEX
  8
Thick_Metal
  10
2.613219
  20
-0.653771
  0
VERTEX
  8
Thick_Metal
  10
2.609674
  20
-0.708606
  0
VERTEX
  8
Thick_Metal
  10
2.603773
  20
-0.763239
  0
VERTEX
  8
Thick_Metal
  10
2.595528
  20
-0.817567
  0
VERTEX
  8
Thick_Metal
  10
2.584952
  20
-0.87149
  0
VERTEX
  8
Thick_Metal
  10
2.572067
  20
-0.924908
  0
VERTEX
  8
Thick_Metal
  10
2.556895
  20
-0.977723
  0
VERTEX
  8
Thick_Metal
  10
2.539466
  20
-1.029836
  0
VERTEX
  8
Thick_Metal
  10
2.51981
  20
-1.08115
  0
VERTEX
  8
Thick_Metal
  10
2.497965
  20
-1.131572
  0
VERTEX
  8
Thick_Metal
  10
2.473971
  20
-1.181007
  0
VERTEX
  8
Thick_Metal
  10
2.447872
  20
-1.229364
  0
VERTEX
  8
Thick_Metal
  10
2.419717
  20
-1.276553
  0
VERTEX
  8
Thick_Metal
  10
2.389558
  20
-1.322487
  0
VERTEX
  8
Thick_Metal
  10
2.357451
  20
-1.367082
  0
VERTEX
  8
Thick_Metal
  10
2.323455
  20
-1.410253
  0
VERTEX
  8
Thick_Metal
  10
2.287632
  20
-1.451922
  0
VERTEX
  8
Thick_Metal
  10
2.250051
  20
-1.492012
  0
VERTEX
  8
Thick_Metal
  10
2.210779
  20
-1.530447
  0
VERTEX
  8
Thick_Metal
  10
2.169891
  20
-1.567158
  0
VERTEX
  8
Thick_Metal
  10
2.12746
  20
-1.602075
  0
VERTEX
  8
Thick_Metal
  10
2.083567
  20
-1.635134
  0
VERTEX
  8
Thick_Metal
  10
2.038292
  20
-1.666275
  0
VERTEX
  8
Thick_Metal
  10
1.99172
  20
-1.695439
  0
VERTEX
  8
Thick_Metal
  10
1.943936
  20
-1.722572
  0
VERTEX
  8
Thick_Metal
  10
1.895028
  20
-1.747624
  0
VERTEX
  8
Thick_Metal
  10
1.845088
  20
-1.770549
  0
VERTEX
  8
Thick_Metal
  10
1.794209
  20
-1.791304
  0
VERTEX
  8
Thick_Metal
  10
1.742483
  20
-1.809851
  0
VERTEX
  8
Thick_Metal
  10
1.690007
  20
-1.826155
  0
VERTEX
  8
Thick_Metal
  10
1.636879
  20
-1.840187
  0
VERTEX
  8
Thick_Metal
  10
1.583196
  20
-1.85192
  0
VERTEX
  8
Thick_Metal
  10
1.529057
  20
-1.861333
  0
VERTEX
  8
Thick_Metal
  10
1.474564
  20
-1.868408
  0
VERTEX
  8
Thick_Metal
  10
1.419818
  20
-1.873131
  0
VERTEX
  8
Thick_Metal
  10
1.364918
  20
-1.875495
  0
VERTEX
  8
Thick_Metal
  10
1.309968
  20
-1.875495
  0
VERTEX
  8
Thick_Metal
  10
1.255068
  20
-1.873131
  0
VERTEX
  8
Thick_Metal
  10
1.200322
  20
-1.868408
  0
VERTEX
  8
Thick_Metal
  10
1.145829
  20
-1.861333
  0
VERTEX
  8
Thick_Metal
  10
1.09169
  20
-1.85192
  0
VERTEX
  8
Thick_Metal
  10
1.038007
  20
-1.840187
  0
VERTEX
  8
Thick_Metal
  10
0.984879
  20
-1.826155
  0
VERTEX
  8
Thick_Metal
  10
0.932403
  20
-1.809851
  0
VERTEX
  8
Thick_Metal
  10
0.880677
  20
-1.791304
  0
VERTEX
  8
Thick_Metal
  10
0.829798
  20
-1.770549
  0
VERTEX
  8
Thick_Metal
  10
0.779858
  20
-1.747624
  0
VERTEX
  8
Thick_Metal
  10
0.73095
  20
-1.722572
  0
VERTEX
  8
Thick_Metal
  10
0.683166
  20
-1.695439
  0
VERTEX
  8
Thick_Metal
  10
0.636594
  20
-1.666275
  0
VERTEX
  8
Thick_Metal
  10
0.591319
  20
-1.635134
  0
VERTEX
  8
Thick_Metal
  10
0.547426
  20
-1.602075
  0
VERTEX
  8
Thick_Metal
  10
0.504995
  20
-1.567158
  0
VERTEX
  8
Thick_Metal
  10
0.464107
  20
-1.530447
  0
VERTEX
  8
Thick_Metal
  10
0.424835
  20
-1.492012
  0
VERTEX
  8
Thick_Metal
  10
0.387254
  20
-1.451922
  0
VERTEX
  8
Thick_Metal
  10
0.351431
  20
-1.410253
  0
VERTEX
  8
Thick_Metal
  10
0.317435
  20
-1.367082
  0
VERTEX
  8
Thick_Metal
  10
0.285328
  20
-1.322487
  0
VERTEX
  8
Thick_Metal
  10
0.255169
  20
-1.276553
  0
VERTEX
  8
Thick_Metal
  10
0.227014
  20
-1.229364
  0
VERTEX
  8
Thick_Metal
  10
0.200915
  20
-1.181007
  0
VERTEX
  8
Thick_Metal
  10
0.176921
  20
-1.131572
  0
VERTEX
  8
Thick_Metal
  10
0.155076
  20
-1.08115
  0
VERTEX
  8
Thick_Metal
  10
0.13542
  20
-1.029836
  0
VERTEX
  8
Thick_Metal
  10
0.117991
  20
-0.977723
  0
VERTEX
  8
Thick_Metal
  10
0.102819
  20
-0.924908
  0
VERTEX
  8
Thick_Metal
  10
0.089934
  20
-0.87149
  0
VERTEX
  8
Thick_Metal
  10
0.079358
  20
-0.817567
  0
VERTEX
  8
Thick_Metal
  10
0.071113
  20
-0.763239
  0
VERTEX
  8
Thick_Metal
  10
0.065212
  20
-0.708606
  0
VERTEX
  8
Thick_Metal
  10
0.061667
  20
-0.653771
  0
VERTEX
  8
Thick_Metal
  10
0.060485
  20
-0.598833
  0
VERTEX
  8
Thick_Metal
  10
-0.060485
  20
-0.598833
  0
VERTEX
  8
Thick_Metal
  10
-0.059191
  20
-0.658975
  0
VERTEX
  8
Thick_Metal
  10
-0.05531
  20
-0.719006
  0
VERTEX
  8
Thick_Metal
  10
-0.04885
  20
-0.778814
  0
VERTEX
  8
Thick_Metal
  10
-0.039824
  20
-0.838288
  0
VERTEX
  8
Thick_Metal
  10
-0.028247
  20
-0.89732
  0
VERTEX
  8
Thick_Metal
  10
-0.014141
  20
-0.955799
  0
VERTEX
  8
Thick_Metal
  10
0.002468
  20
-1.013616
  0
VERTEX
  8
Thick_Metal
  10
0.021549
  20
-1.070666
  0
VERTEX
  8
Thick_Metal
  10
0.043067
  20
-1.126842
  0
VERTEX
  8
Thick_Metal
  10
0.066981
  20
-1.18204
  0
VERTEX
  8
Thick_Metal
  10
0.093249
  20
-1.236158
  0
VERTEX
  8
Thick_Metal
  10
0.12182
  20
-1.289096
  0
VERTEX
  8
Thick_Metal
  10
0.152642
  20
-1.340755
  0
VERTEX
  8
Thick_Metal
  10
0.185658
  20
-1.391041
  0
VERTEX
  8
Thick_Metal
  10
0.220807
  20
-1.43986
  0
VERTEX
  8
Thick_Metal
  10
0.258024
  20
-1.487122
  0
VERTEX
  8
Thick_Metal
  10
0.297239
  20
-1.532738
  0
VERTEX
  8
Thick_Metal
  10
0.338381
  20
-1.576625
  0
VERTEX
  8
Thick_Metal
  10
0.381373
  20
-1.618702
  0
VERTEX
  8
Thick_Metal
  10
0.426135
  20
-1.65889
  0
VERTEX
  8
Thick_Metal
  10
0.472585
  20
-1.697115
  0
VERTEX
  8
Thick_Metal
  10
0.520636
  20
-1.733306
  0
VERTEX
  8
Thick_Metal
  10
0.5702
  20
-1.767397
  0
VERTEX
  8
Thick_Metal
  10
0.621185
  20
-1.799323
  0
VERTEX
  8
Thick_Metal
  10
0.673496
  20
-1.829027
  0
VERTEX
  8
Thick_Metal
  10
0.727036
  20
-1.856452
  0
VERTEX
  8
Thick_Metal
  10
0.781707
  20
-1.881549
  0
VERTEX
  8
Thick_Metal
  10
0.837407
  20
-1.90427
  0
VERTEX
  8
Thick_Metal
  10
0.894032
  20
-1.924574
  0
VERTEX
  8
Thick_Metal
  10
0.951479
  20
-1.942423
  0
VERTEX
  8
Thick_Metal
  10
1.009641
  20
-1.957784
  0
VERTEX
  8
Thick_Metal
  10
1.06841
  20
-1.970629
  0
VERTEX
  8
Thick_Metal
  10
1.127676
  20
-1.980933
  0
VERTEX
  8
Thick_Metal
  10
1.187332
  20
-1.988678
  0
VERTEX
  8
Thick_Metal
  10
1.247265
  20
-1.993849
  0
VERTEX
  8
Thick_Metal
  10
1.307365
  20
-1.996437
  0
VERTEX
  8
Thick_Metal
  10
1.367521
  20
-1.996437
  0
VERTEX
  8
Thick_Metal
  10
1.427621
  20
-1.993849
  0
VERTEX
  8
Thick_Metal
  10
1.487554
  20
-1.988678
  0
VERTEX
  8
Thick_Metal
  10
1.54721
  20
-1.980933
  0
VERTEX
  8
Thick_Metal
  10
1.606476
  20
-1.970629
  0
VERTEX
  8
Thick_Metal
  10
1.665245
  20
-1.957784
  0
VERTEX
  8
Thick_Metal
  10
1.723407
  20
-1.942423
  0
VERTEX
  8
Thick_Metal
  10
1.780854
  20
-1.924574
  0
VERTEX
  8
Thick_Metal
  10
1.837479
  20
-1.90427
  0
VERTEX
  8
Thick_Metal
  10
1.893179
  20
-1.881549
  0
VERTEX
  8
Thick_Metal
  10
1.94785
  20
-1.856452
  0
VERTEX
  8
Thick_Metal
  10
2.00139
  20
-1.829027
  0
VERTEX
  8
Thick_Metal
  10
2.053701
  20
-1.799323
  0
VERTEX
  8
Thick_Metal
  10
2.104686
  20
-1.767397
  0
VERTEX
  8
Thick_Metal
  10
2.15425
  20
-1.733306
  0
VERTEX
  8
Thick_Metal
  10
2.202301
  20
-1.697115
  0
VERTEX
  8
Thick_Metal
  10
2.248751
  20
-1.65889
  0
VERTEX
  8
Thick_Metal
  10
2.293513
  20
-1.618702
  0
VERTEX
  8
Thick_Metal
  10
2.336505
  20
-1.576625
  0
VERTEX
  8
Thick_Metal
  10
2.377647
  20
-1.532738
  0
VERTEX
  8
Thick_Metal
  10
2.416862
  20
-1.487122
  0
VERTEX
  8
Thick_Metal
  10
2.454079
  20
-1.43986
  0
VERTEX
  8
Thick_Metal
  10
2.489228
  20
-1.391041
  0
VERTEX
  8
Thick_Metal
  10
2.522244
  20
-1.340755
  0
VERTEX
  8
Thick_Metal
  10
2.553066
  20
-1.289096
  0
VERTEX
  8
Thick_Metal
  10
2.581637
  20
-1.236158
  0
VERTEX
  8
Thick_Metal
  10
2.607905
  20
-1.18204
  0
VERTEX
  8
Thick_Metal
  10
2.631819
  20
-1.126842
  0
VERTEX
  8
Thick_Metal
  10
2.653337
  20
-1.070666
  0
VERTEX
  8
Thick_Metal
  10
2.672418
  20
-1.013616
  0
VERTEX
  8
Thick_Metal
  10
2.689027
  20
-0.955799
  0
VERTEX
  8
Thick_Metal
  10
2.703133
  20
-0.89732
  0
VERTEX
  8
Thick_Metal
  10
2.71471
  20
-0.838288
  0
VERTEX
  8
Thick_Metal
  10
2.723736
  20
-0.778814
  0
VERTEX
  8
Thick_Metal
  10
2.730196
  20
-0.719006
  0
VERTEX
  8
Thick_Metal
  10
2.734077
  20
-0.658975
  0
VERTEX
  8
Thick_Metal
  10
2.735371
  20
-0.598833
  0
SEQEND
  0
POLYLINE
  8
Thick_Metal
  70
1
  66
1
  0
VERTEX
  8
Thick_Metal
  10
-0.060485
  20
0.104318
  0
VERTEX
  8
Thick_Metal
  10
-0.480442
  20
0.104318
  0
VERTEX
  8
Thick_Metal
  10
-0.480442
  20
-0.104318
  0
VERTEX
  8
Thick_Metal
  10
-0.060485
  20
-0.104318
  0
SEQEND
  0
POLYLINE
  8
Thick_Metal
  70
1
  66
1
  0
VERTEX
  8
Thick_Metal
  10
2.880081
  20
-0.655326
  0
VERTEX
  8
Thick_Metal
  10
3.08687
  20
-0.691788
  0
VERTEX
  8
Thick_Metal
  10
3.123099
  20
-0.486322
  0
VERTEX
  8
Thick_Metal
  10
2.91631
  20
-0.44986
  0
SEQEND
  0
POLYLINE
  8
Thick_Metal
  70
1
  66
1
  0
VERTEX
  8
Thick_Metal
  10
2.91631
  20
0.44986
  0
VERTEX
  8
Thick_Metal
  10
3.123099
  20
0.486322
  0
VERTEX
  8
Thick_Metal
  10
3.08687
  20
0.691789
  0
VERTEX
  8
Thick_Metal
  10
2.880081
  20
0.655326
  0
SEQEND
  0
POLYLINE
  8
Thick_Metal
  70
1
  66
1
  0
VERTEX
  8
Thick_Metal
  10
0.060485
  20
0.104318
  0
VERTEX
  8
Thick_Metal
  10
0.060485
  20
0.598833
  0
VERTEX
  8
Thick_Metal
  10
-0.060485
  20
0.598833
  0
VERTEX
  8
Thick_Metal
  10
-0.060485
  20
0.104318
  0
SEQEND
  0
POLYLINE
  8
Thick_Metal
  70
1
  66
1
  0
VERTEX
  8
Thick_Metal
  10
0.060485
  20
-0.598833
  0
VERTEX
  8
Thick_Metal
  10
0.060485
  20
-0.104318
  0
VERTEX
  8
Thick_Metal
  10
-0.060485
  20
-0.104318
  0
VERTEX
  8
Thick_Metal
  10
-0.060485
  20
-0.598833
  0
SEQEND
  0
POLYLINE
  8
Thick_Metal
  70
1
  66
1
  0
VERTEX
  8
Thick_Metal
  10
2.735371
  20
-0.477863
  0
VERTEX
  8
Thick_Metal
  10
2.908699
  20
-0.493027
  0
VERTEX
  8
Thick_Metal
  10
2.887693
  20
-0.612159
  0
VERTEX
  8
Thick_Metal
  10
2.812115
  20
-0.598833
  0
VERTEX
  8
Thick_Metal
  10
2.735371
  20
-0.598833
  0
SEQEND
  0
POLYLINE
  8
Thick_Metal
  70
1
  66
1
  0
VERTEX
  8
Thick_Metal
  10
2.735371
  20
0.477863
  0
VERTEX
  8
Thick_Metal
  10
2.908699
  20
0.493027
  0
VERTEX
  8
Thick_Metal
  10
2.887693
  20
0.612159
  0
VERTEX
  8
Thick_Metal
  10
2.812115
  20
0.598833
  0
VERTEX
  8
Thick_Metal
  10
2.735371
  20
0.598833
  0
SEQEND
  0
POLYLINE
  8
Thick_Metal
  70
1
  66
1
  0
VERTEX
  8
Thick_Metal
  10
2.735371
  20
-0.477863
  0
VERTEX
  8
Thick_Metal
  10
2.614401
  20
-0.477863
  0
VERTEX
  8
Thick_Metal
  10
2.614401
  20
-0.598833
  0
VERTEX
  8
Thick_Metal
  10
2.735371
  20
-0.598833
  0
SEQEND
  0
POLYLINE
  8
Thick_Metal
  70
1
  66
1
  0
VERTEX
  8
Thick_Metal
  10
2.735371
  20
0.477863
  0
VERTEX
  8
Thick_Metal
  10
2.614401
  20
0.477863
  0
VERTEX
  8
Thick_Metal
  10
2.614401
  20
0.598833
  0
VERTEX
  8
Thick_Metal
  10
2.735371
  20
0.598833
  0
SEQEND
  0
POLYLINE
  8
Thick_Metal
  70
1
  66
1
  0
VERTEX
  8
Thick_Metal
  10
2.824886
  20
-0.477863
  0
VERTEX
  8
Thick_Metal
  10
2.824886
  20
-0.177863
  0
VERTEX
  8
Thick_Metal
  10
2.524886
  20
-0.177863
  0
VERTEX
  8
Thick_Metal
  10
2.524886
  20
-0.477863
  0
SEQEND
  0
POLYLINE
  8
Thick_Metal
  70
1
  66
1
  0
VERTEX
  8
Thick_Metal
  10
2.824886
  20
0.177863
  0
VERTEX
  8
Thick_Metal
  10
2.824886
  20
0.477863
  0
VERTEX
  8
Thick_Metal
  10
2.524886
  20
0.477863
  0
VERTEX
  8
Thick_Metal
  10
2.524886
  20
0.177863
  0
SEQEND
  0
ENDSEC
  0
EOF
